<svg width="12" height="12" viewBox="0 0 12 12" fill="none" xmlns="http://www.w3.org/2000/svg">
<path d="M6 0C9.306 0 12 2.688 12 6C12 9.306 9.306 12 6 12C2.688 12 0 9.306 0 6C0 2.688 2.688 0 6 0ZM4.236 4.818C4.062 4.638 3.774 4.638 3.6 4.812C3.42 4.992 3.42 5.274 3.6 5.448L5.682 7.542C5.766 7.626 5.88 7.674 6 7.674C6.12 7.674 6.234 7.626 6.318 7.542L8.4 5.448C8.49 5.364 8.532 5.25 8.532 5.136C8.532 5.016 8.49 4.902 8.4 4.812C8.22 4.638 7.938 4.638 7.764 4.818L6 6.588L4.236 4.818Z" fill="#C4C4C4" fill-opacity="0.5"/>
</svg>
