<svg viewBox="0 0 48 49" fill="none" xmlns="http://www.w3.org/2000/svg">
<path fill-rule="evenodd" clip-rule="evenodd" d="M36.954 22.839C37.6707 22.4235 38.5885 22.6677 39.004 23.3844L43.2977 30.7906C43.7132 31.5073 43.4691 32.4252 42.7524 32.8407C42.0357 33.2562 41.1179 33.012 40.7024 32.2953L36.4086 24.8891C35.9931 24.1724 36.2373 23.2545 36.954 22.839Z" fill="#A0A7BA"/>
<path fill-rule="evenodd" clip-rule="evenodd" d="M28.6523 26.7845C29.4682 26.6407 30.2461 27.1856 30.3899 28.0015L31.7211 35.5577C31.8648 36.3736 31.32 37.1515 30.5041 37.2952C29.6883 37.439 28.9103 36.8941 28.7666 36.0782L27.4354 28.522C27.2916 27.7061 27.8365 26.9282 28.6523 26.7845Z" fill="#A0A7BA"/>
<path fill-rule="evenodd" clip-rule="evenodd" d="M19.3284 26.7658C20.1444 26.9092 20.6896 27.6869 20.5462 28.5028L19.2149 36.0778C19.0715 36.8937 18.2938 37.4389 17.4779 37.2955C16.662 37.1521 16.1168 36.3745 16.2602 35.5585L17.5914 27.9835C17.7348 27.1676 18.5125 26.6224 19.3284 26.7658Z" fill="#A0A7BA"/>
<path fill-rule="evenodd" clip-rule="evenodd" d="M11.0244 22.8374C11.742 23.2513 11.9882 24.1686 11.5743 24.8862L7.28054 32.33C6.86661 33.0476 5.94932 33.2937 5.23172 32.8798C4.51412 32.4659 4.26794 31.5486 4.68188 30.831L8.97563 23.3872C9.38956 22.6696 10.3068 22.4235 11.0244 22.8374Z" fill="#A0A7BA"/>
<path fill-rule="evenodd" clip-rule="evenodd" d="M5.05755 18.7699C5.70201 18.2494 6.64643 18.3498 7.16696 18.9943C10.1513 22.6892 15.5388 27.2681 24.0001 27.2681C32.4613 27.2681 37.8488 22.6892 40.8331 18.9943C41.3537 18.3498 42.2981 18.2494 42.9426 18.7699C43.587 19.2904 43.6875 20.2349 43.167 20.8793C39.8513 24.9845 33.6888 30.2681 24.0001 30.2681C14.3113 30.2681 8.14884 24.9845 4.83314 20.8793C4.31261 20.2349 4.41308 19.2904 5.05755 18.7699Z" fill="#A0A7BA"/>
</svg>
