<svg  viewBox="0 0 48 49" fill="none" xmlns="http://www.w3.org/2000/svg">
<path fill-rule="evenodd" clip-rule="evenodd" d="M6.81434 16.4574C10.3901 12.8817 16.0011 9.26807 24 9.26807C31.9989 9.26807 37.6099 12.8817 41.1857 16.4574C42.9692 18.2409 44.2553 20.0219 45.0975 21.3595C45.5193 22.0294 45.8319 22.5916 46.0416 22.992C46.1466 23.1923 46.2259 23.3524 46.2805 23.4657C46.3077 23.5224 46.3288 23.5674 46.3438 23.5998L46.3618 23.639L46.3674 23.6514L46.3693 23.6558L46.3701 23.6575C46.3704 23.6582 46.3707 23.6589 45 24.2681C46.3707 24.8773 46.3704 24.8779 46.3701 24.8787L46.3693 24.8804L46.3674 24.8847L46.3618 24.8971L46.3438 24.9363C46.3288 24.9688 46.3077 25.0137 46.2805 25.0704C46.2259 25.1837 46.1466 25.3438 46.0416 25.5442C45.8319 25.9446 45.5193 26.5067 45.0975 27.1767C44.2553 28.5142 42.9692 30.2952 41.1857 32.0787C37.6099 35.6545 31.9989 39.2681 24 39.2681C16.0011 39.2681 10.3901 35.6545 6.81434 32.0787C5.0308 30.2952 3.74471 28.5142 2.90253 27.1767C2.4807 26.5067 2.16809 25.9446 1.95836 25.5442C1.85344 25.3438 1.77409 25.1837 1.71954 25.0704C1.69226 25.0137 1.67117 24.9688 1.65616 24.9363L1.6382 24.8971L1.63261 24.8847L1.63067 24.8804L1.6299 24.8787C1.62958 24.8779 1.62928 24.8773 3 24.2681C1.62928 23.6589 1.62958 23.6582 1.6299 23.6575L1.63067 23.6558L1.63261 23.6514L1.6382 23.639L1.65616 23.5998C1.67117 23.5674 1.69226 23.5224 1.71954 23.4657C1.77409 23.3524 1.85344 23.1923 1.95836 22.992C2.16809 22.5916 2.4807 22.0294 2.90253 21.3595C3.74471 20.0219 5.0308 18.2409 6.81434 16.4574ZM3 24.2681L1.62928 23.6589C1.45691 24.0467 1.45691 24.4894 1.62928 24.8773L3 24.2681ZM4.67717 24.2681C4.85364 24.5986 5.10706 25.0475 5.44122 25.5782C6.19279 26.7719 7.3442 28.3659 8.93566 29.9574C12.1099 33.1317 16.9989 36.2681 24 36.2681C31.0011 36.2681 35.8901 33.1317 39.0643 29.9574C40.6558 28.3659 41.8072 26.7719 42.5588 25.5782C42.8929 25.0475 43.1464 24.5986 43.3228 24.2681C43.1464 23.9375 42.8929 23.4886 42.5588 22.9579C41.8072 21.7642 40.6558 20.1702 39.0643 18.5787C35.8901 15.4045 31.0011 12.2681 24 12.2681C16.9989 12.2681 12.1099 15.4045 8.93566 18.5787C7.3442 20.1702 6.19279 21.7642 5.44122 22.9579C5.10706 23.4886 4.85364 23.9375 4.67717 24.2681ZM45 24.2681L46.3707 24.8773C46.5431 24.4894 46.5431 24.0467 46.3707 23.6589L45 24.2681Z" fill="#A0A7BA"/>
<path fill-rule="evenodd" clip-rule="evenodd" d="M24 18.2681C20.6863 18.2681 18 20.9544 18 24.2681C18 27.5818 20.6863 30.2681 24 30.2681C27.3137 30.2681 30 27.5818 30 24.2681C30 20.9544 27.3137 18.2681 24 18.2681ZM15 24.2681C15 19.2975 19.0294 15.2681 24 15.2681C28.9706 15.2681 33 19.2975 33 24.2681C33 29.2386 28.9706 33.2681 24 33.2681C19.0294 33.2681 15 29.2386 15 24.2681Z" fill="#A0A7BA"/>
</svg>
