<svg  viewBox="0 0 13 13" fill="none" xmlns="http://www.w3.org/2000/svg">
<path fill-rule="evenodd" clip-rule="evenodd" d="M7.08297 8.63911C7.81079 8.63911 8.4032 9.22729 8.4032 9.95028V11.8097C8.4032 11.9651 8.52773 12.0896 8.68732 12.0932H9.8395C10.7475 12.0932 11.4856 11.3642 11.4856 10.4683V5.19465C11.4813 4.88635 11.3344 4.59619 11.0824 4.40335L7.09687 1.22488C6.56189 0.801118 5.81351 0.801118 5.27671 1.22608L1.31842 4.40215C1.05667 4.60103 0.909778 4.89119 0.906755 5.20493V10.4683C0.906755 11.3642 1.64485 12.0932 2.55282 12.0932H3.71588C3.8797 12.0932 4.01269 11.9633 4.01269 11.8037C4.01269 11.7686 4.01693 11.7336 4.02418 11.7003V9.95028C4.02418 9.23152 4.61297 8.64395 5.33535 8.63911H7.08297ZM9.8395 13H8.67644C8.01028 12.9843 7.49645 12.4614 7.49645 11.8097V9.95028C7.49645 9.72722 7.31087 9.54587 7.08297 9.54587H5.33837C5.11531 9.54708 4.93094 9.72903 4.93094 9.95028V11.8037C4.93094 11.849 4.92489 11.8925 4.9122 11.9337C4.84691 12.5321 4.3355 13 3.71588 13H2.55282C1.14493 13 0 11.8641 0 10.4683V5.2007C0.00604504 4.59982 0.282908 4.04972 0.76107 3.68762L4.7115 0.517002C5.58138 -0.172132 6.79341 -0.172132 7.66148 0.515793L11.6403 3.68944C12.1076 4.04549 12.3845 4.59438 12.3923 5.188V10.4683C12.3923 11.8641 11.2474 13 9.8395 13Z" fill="#929292"/>
</svg>
