<svg  viewBox="0 0 12 13" fill="none" xmlns="http://www.w3.org/2000/svg">
<path d="M4.09145 11.5769V9.6913C4.09145 9.20996 4.48451 8.81976 4.96937 8.81976H6.74178C6.97462 8.81976 7.19792 8.91158 7.36256 9.07503C7.5272 9.23847 7.6197 9.46015 7.6197 9.6913V11.5769C7.61823 11.777 7.69728 11.9694 7.8393 12.1114C7.98132 12.2535 8.17457 12.3333 8.37615 12.3333H9.58536C10.1501 12.3348 10.6922 12.1131 11.0921 11.7172C11.4919 11.3212 11.7167 10.7836 11.7167 10.223V4.85123C11.7167 4.39835 11.5144 3.96877 11.1645 3.67821L7.05098 0.416786C6.33543 -0.155054 5.31019 -0.13659 4.61599 0.460637L0.596324 3.67821C0.229857 3.9602 0.0108239 4.39106 0 4.85123V10.2175C0 11.386 0.954219 12.3333 2.13131 12.3333H3.31291C3.73159 12.3333 4.07185 11.998 4.07488 11.5824L4.09145 11.5769Z" fill="#FF97BE"/>
</svg>
