<svg  viewBox="0 0 12 14" fill="none" xmlns="http://www.w3.org/2000/svg">
<path d="M7.31443 12.6347C7.31736 12.6371 7.31966 12.6391 7.32144 12.6408C7.30576 12.7902 7.21319 12.9459 7.05682 13.0566L7.04553 13.0647L7.03469 13.0733C6.75884 13.2926 6.43651 13.4309 6.10062 13.4813C5.90968 13.5062 5.72651 13.5062 5.5496 13.4816C5.21232 13.4314 4.88973 13.293 4.61456 13.0733L4.60273 13.0638L4.59035 13.0551C4.4344 12.9453 4.34194 12.7902 4.32626 12.6408C4.32805 12.6391 4.33035 12.6371 4.33328 12.6347C4.36685 12.6078 4.43625 12.5738 4.54297 12.5479C4.54719 12.5472 4.55824 12.5454 4.57817 12.5431C4.60355 12.5401 4.63655 12.5369 4.67742 12.5338C4.75919 12.5275 4.86326 12.522 4.98439 12.5176C5.22619 12.5086 5.52397 12.504 5.82385 12.504C6.12374 12.504 6.42151 12.5086 6.66332 12.5176C6.78444 12.522 6.88851 12.5275 6.97029 12.5338C7.01116 12.5369 7.04416 12.5401 7.06953 12.5431C7.08947 12.5454 7.10052 12.5472 7.10474 12.5479C7.21146 12.5738 7.28086 12.6078 7.31443 12.6347ZM9.21747 2.1387L9.21857 2.14016C9.70807 2.78306 9.93623 3.41153 9.93623 4.45921V4.75743C9.93623 5.24163 9.99918 5.65407 10.1455 6.03838C10.2915 6.42171 10.5098 6.74867 10.7824 7.0734L10.7824 7.07343L10.7869 7.07871C11.0559 7.39021 11.1667 7.81517 11.1667 8.36922C11.1667 8.86772 11.0084 9.32992 10.6982 9.70445C10.2647 10.1743 9.655 10.473 9.04237 10.5247L9.04107 10.5248C7.96571 10.6183 6.90442 10.6956 5.83367 10.6956C4.75389 10.6956 3.69546 10.649 2.64077 10.5262L2.63287 10.5253L2.62494 10.5247C2.0115 10.473 1.40189 10.1742 0.969251 9.70457C0.658692 9.32974 0.5 8.86738 0.5 8.36922C0.5 7.81591 0.611118 7.39061 0.879656 7.07881C1.16324 6.75121 1.38344 6.42202 1.52824 6.03605C1.67293 5.65035 1.73112 5.2379 1.73112 4.75743V4.45921C1.73112 3.38889 1.98446 2.72952 2.50322 2.06925C3.2873 1.09253 4.55409 0.5 5.80298 0.5H5.86437C7.14277 0.5 8.45023 1.12334 9.21747 2.1387Z" fill="#FFC700" stroke="#FFC700"/>
</svg>
