<svg viewBox="0 0 14 14" fill="none" xmlns="http://www.w3.org/2000/svg">
<path fill-rule="evenodd" clip-rule="evenodd" d="M7 0C10.8599 0 14 3.1401 14 7C14 10.8599 10.8599 14 7 14C3.1401 14 0 10.8599 0 7C0 3.1401 3.1401 0 7 0ZM7 1.02439C3.70488 1.02439 1.02439 3.70488 1.02439 7C1.02439 10.2951 3.70488 12.9756 7 12.9756C10.2951 12.9756 12.9756 10.2951 12.9756 7C12.9756 3.70488 10.2951 1.02439 7 1.02439ZM6.71372 4.61754C7.06884 4.76574 9.56084 6.04213 9.56084 6.99686C9.56084 7.89149 7.31811 9.14261 6.74513 9.38164C6.52181 9.47452 6.26708 9.56193 6.02874 9.56193C5.84435 9.56193 5.66952 9.50935 5.52679 9.3673C5.41684 9.25871 5.12318 8.96847 5.12181 7.05696C5.12113 5.0273 5.4264 4.72544 5.52679 4.62505C5.88396 4.2713 6.46581 4.51374 6.71372 4.61754ZM6.23772 5.52242C6.11684 6.20603 6.11479 7.83891 6.23567 8.48769C6.83528 8.27598 8.1342 7.42232 8.48386 6.99959C8.13557 6.58915 6.85303 5.75325 6.23772 5.52242Z" fill="#929292"/>
</svg>
